<?xml version="1.0" standalone="no"?>
<!DOCTYPE svg PUBLIC "-//W3C//DTD SVG 20010904//EN"
 "http://www.w3.org/TR/2001/REC-SVG-20010904/DTD/svg10.dtd">
<svg version="1.0" xmlns="http://www.w3.org/2000/svg"
 width="1024.000000pt" height="1024.000000pt" viewBox="0 0 1024.000000 1024.000000"
 preserveAspectRatio="xMidYMid meet">
<metadata>
Created by potrace 1.14, written by Peter Selinger 2001-2017
</metadata>
<g transform="translate(0.000000,1024.000000) scale(0.100000,-0.100000)"
fill="#000000" stroke="none">
<path d="M4885 8894 c-64 -7 -253 -43 -340 -65 -121 -31 -201 -62 -358 -137
-120 -58 -310 -169 -327 -191 -3 -4 -43 -37 -90 -73 -132 -102 -378 -369 -427
-462 -8 -16 -35 -57 -60 -90 -135 -186 -269 -583 -313 -922 -19 -150 -20 -215
-20 -912 l0 -749 -29 -6 c-30 -6 -162 -85 -193 -116 -9 -9 -36 -35 -61 -59
-68 -65 -151 -211 -179 -312 l-23 -85 0 -1365 0 -1365 23 -85 c30 -110 87
-207 176 -298 82 -85 160 -132 267 -161 75 -21 76 -21 2170 -21 l2096 0 64 21
c125 41 198 91 295 200 47 52 101 147 126 219 l23 65 0 1425 c0 1374 -1 1427
-19 1480 -27 78 -71 154 -137 235 -61 76 -107 116 -206 184 l-63 43 0 702 c0
743 -6 882 -46 1111 -41 241 -84 372 -191 590 -125 255 -209 376 -393 568
-103 107 -161 157 -280 242 -242 171 -546 306 -790 349 -52 10 -115 22 -140
28 -45 10 -480 20 -555 12z m464 -244 c171 -19 261 -59 291 -129 15 -38 -6
-80 -56 -111 -33 -21 -44 -22 -137 -16 -56 3 -138 10 -182 15 -221 27 -517 -1
-693 -65 -54 -20 -114 -42 -135 -50 -139 -53 -396 -216 -503 -320 -85 -82
-190 -198 -222 -245 -12 -19 -39 -58 -59 -88 -55 -84 -130 -249 -179 -398 -35
-105 -50 -169 -65 -291 -19 -143 -21 -222 -23 -888 -2 -402 -6 -736 -10 -742
-5 -8 -41 -12 -101 -12 -83 0 -96 2 -105 20 -17 32 -13 1419 5 1589 23 219 56
361 121 524 74 185 139 308 206 393 35 43 80 102 100 129 54 74 247 253 378
349 264 195 597 323 890 343 47 3 86 6 87 7 7 6 309 -5 392 -14z m-9 -641 c93
-14 259 -72 377 -131 134 -67 233 -142 382 -289 28 -28 106 -132 149 -199 79
-125 143 -295 184 -490 21 -101 22 -129 25 -832 l4 -728 -1330 0 -1331 0 -5
23 c-3 12 -4 346 -2 742 4 806 5 818 80 1028 40 110 138 291 201 369 115 145
313 307 461 378 127 61 294 121 365 130 86 11 368 11 440 -1z m-2333 -3655
l93 -7 2 -1124 3 -1125 37 -34 c21 -19 47 -34 59 -34 47 0 129 -69 129 -109 0
-65 -92 -131 -183 -131 -132 0 -254 80 -318 207 l-34 68 -3 1161 -3 1162 63
-14 c35 -7 105 -16 155 -20z"/>
<path d="M9920 80 l0 -80 160 0 160 0 0 80 0 80 -160 0 -160 0 0 -80z"/>
</g>
</svg>
